<svg width="119" height="46" viewBox="0 0 119 46" fill="none" xmlns="http://www.w3.org/2000/svg">
<g filter="url(#filter0_i_1409_16707)">
<path d="M12 26.7354L20.7345 34.7379C20.8628 34.8555 21.0696 34.7644 21.0696 34.5904V26.7354H12Z" fill="#4160FF"/>
</g>
<path d="M32.4714 10.9546H12V17.9546H32.4714V10.9546Z" fill="#6C84FF"/>
<path d="M26.6622 19.7354H12V26.7354H26.6622V19.7354Z" fill="#6C84FF"/>
<path d="M98.6275 28.527H96.4829C96.318 28.527 96.2148 28.4239 96.2148 28.2589V13.3277C96.2148 13.1627 96.318 13.0596 96.4829 13.0596H98.6275C98.7925 13.0596 98.8956 13.1627 98.8956 13.3277V22.01L102.772 17.9885C102.876 17.8854 102.979 17.8442 103.102 17.8442H105.866C106.092 17.8442 106.175 18.0091 106.01 18.1741L102.442 21.6801L106.422 28.197C106.526 28.3826 106.464 28.527 106.257 28.527H103.7C103.556 28.527 103.453 28.4651 103.391 28.3414L100.504 23.598L98.8956 25.1654V28.2589C98.8956 28.4239 98.7925 28.527 98.6275 28.527Z" fill="#282828"/>
<path d="M78.9601 33.0226H76.8154C76.6505 33.0226 76.5474 32.9195 76.5474 32.7545V18.112C76.5474 17.947 76.6505 17.8439 76.8154 17.8439H78.7538C78.9188 17.8439 79.0426 17.9264 79.0426 18.112L79.1044 19.3082C79.8674 18.2564 81.1047 17.6377 82.5894 17.6377C85.6414 17.6377 87.5798 19.9062 87.5798 23.1853C87.5798 26.4644 85.6414 28.733 82.5894 28.733C81.1872 28.733 80.0118 28.1762 79.2281 27.2275V32.7545C79.2281 32.9195 79.125 33.0226 78.9601 33.0226ZM81.9295 26.2994C83.6411 26.2994 84.8165 25.0208 84.8165 23.1853C84.8165 21.3499 83.6411 20.0712 81.9295 20.0712C80.218 20.0712 79.0426 21.3499 79.0426 23.1853C79.0426 25.0208 80.218 26.2994 81.9295 26.2994Z" fill="#282828"/>
<path d="M66.2716 28.5267H64.127C63.962 28.5267 63.8589 28.4236 63.8589 28.2586V18.112C63.8589 17.947 63.962 17.8439 64.127 17.8439H66.0654C66.2303 17.8439 66.3541 17.9264 66.3541 18.112L66.4159 19.3288C67.1995 18.1945 68.5399 17.6377 69.9009 17.6377C72.3755 17.6377 73.7984 19.1226 73.7984 21.5767V28.2586C73.7984 28.4236 73.6953 28.5267 73.5303 28.5267H71.3857C71.2207 28.5267 71.1176 28.4236 71.1176 28.2586V22.6698C71.1176 20.8962 70.4783 20.0712 69.0761 20.0712C67.7769 20.0712 66.5397 21.0405 66.5397 23.0822V28.2586C66.5397 28.4236 66.4366 28.5267 66.2716 28.5267Z" fill="#282828"/>
<path d="M59.5418 15.9468C58.6551 15.9468 57.9746 15.3487 57.9746 14.4619C57.9746 13.5751 58.6551 12.9771 59.5418 12.9771C60.4286 12.9771 61.1091 13.5751 61.1091 14.4619C61.1091 15.3487 60.4286 15.9468 59.5418 15.9468Z" fill="#4160FF"/>
<path d="M91.598 15.9468C90.7113 15.9468 90.0308 15.3487 90.0308 14.4619C90.0308 13.5751 90.7113 12.9771 91.598 12.9771C92.4847 12.9771 93.1652 13.5751 93.1652 14.4619C93.1652 15.3487 92.4847 15.9468 91.598 15.9468Z" fill="#4160FF"/>
<path d="M60.6148 28.5276H58.4702C58.3053 28.5276 58.2021 28.4244 58.2021 28.2594V18.1128C58.2021 17.9478 58.3053 17.8447 58.4702 17.8447H60.6148C60.7798 17.8447 60.8829 17.9478 60.8829 18.1128V28.2594C60.8829 28.4244 60.7798 28.5276 60.6148 28.5276Z" fill="#282828"/>
<path d="M92.6681 28.5276H90.5234C90.3585 28.5276 90.2554 28.4244 90.2554 28.2594V18.1128C90.2554 17.9478 90.3585 17.8447 90.5234 17.8447H92.6681C92.833 17.8447 92.9361 17.9478 92.9361 18.1128V28.2594C92.9361 28.4244 92.833 28.5276 92.6681 28.5276Z" fill="#282828"/>
<path d="M47.987 28.5266H45.7393C45.5743 28.5266 45.4712 28.4235 45.4712 28.2585V13.6573C45.4712 13.4923 45.5743 13.3892 45.7393 13.3892H54.957C55.122 13.3892 55.2251 13.4923 55.2251 13.6573V15.7402C55.2251 15.9052 55.122 16.0083 54.957 16.0083H48.2551V19.9267H54.0291C54.194 19.9267 54.2971 20.0298 54.2971 20.1948V22.2778C54.2971 22.4428 54.194 22.5459 54.0291 22.5459H48.2551V28.2585C48.2551 28.4235 48.152 28.5266 47.987 28.5266Z" fill="#282828"/>
<defs>
<filter id="filter0_i_1409_16707" x="12" y="26.7354" width="9.06982" height="9.05566" filterUnits="userSpaceOnUse" color-interpolation-filters="sRGB">
<feFlood flood-opacity="0" result="BackgroundImageFix"/>
<feBlend mode="normal" in="SourceGraphic" in2="BackgroundImageFix" result="shape"/>
<feColorMatrix in="SourceAlpha" type="matrix" values="0 0 0 0 0 0 0 0 0 0 0 0 0 0 0 0 0 0 127 0" result="hardAlpha"/>
<feOffset dy="1"/>
<feGaussianBlur stdDeviation="0.5"/>
<feComposite in2="hardAlpha" operator="arithmetic" k2="-1" k3="1"/>
<feColorMatrix type="matrix" values="0 0 0 0 0.248151 0 0 0 0 0.335261 0 0 0 0 0.782051 0 0 0 0.6 0"/>
<feBlend mode="normal" in2="shape" result="effect1_innerShadow_1409_16707"/>
</filter>
</defs>
</svg>
