<svg width="124" height="44" viewBox="0 0 124 44" fill="none" xmlns="http://www.w3.org/2000/svg">
<path d="M107.783 33.054H103.494C103.164 33.054 102.958 32.8478 102.958 32.5178V2.65534C102.958 2.32538 103.164 2.11914 103.494 2.11914H107.783C108.113 2.11914 108.32 2.32538 108.32 2.65534V20.02L116.073 11.977C116.279 11.7708 116.486 11.6883 116.733 11.6883H122.26C122.713 11.6883 122.878 12.0183 122.548 12.3483L115.413 19.3601L123.373 32.394C123.579 32.7652 123.456 33.054 123.043 33.054H117.929C117.64 33.054 117.434 32.9302 117.31 32.6828L111.536 23.196L108.32 26.3308V32.5178C108.32 32.8478 108.113 33.054 107.783 33.054Z" fill="#282828"/>
<path d="M68.4484 42.0472H64.1592C63.8292 42.0472 63.623 41.841 63.623 41.511V12.226C63.623 11.896 63.8292 11.6898 64.1592 11.6898H68.036C68.366 11.6898 68.6134 11.8548 68.6134 12.226L68.7372 14.6183C70.2632 12.5147 72.7376 11.2773 75.7072 11.2773C81.811 11.2773 85.688 15.8144 85.688 22.3726C85.688 28.9308 81.811 33.468 75.7072 33.468C72.9026 33.468 70.5518 32.3542 68.9846 30.457V41.511C68.9846 41.841 68.7784 42.0472 68.4484 42.0472ZM74.3874 28.6008C77.8106 28.6008 80.1614 26.0436 80.1614 22.3726C80.1614 18.7017 77.8106 16.1444 74.3874 16.1444C70.9642 16.1444 68.6134 18.7017 68.6134 22.3726C68.6134 26.0436 70.9642 28.6008 74.3874 28.6008Z" fill="#282828"/>
<path d="M43.0715 33.0554H38.7823C38.4525 33.0554 38.2461 32.8492 38.2461 32.5192V12.226C38.2461 11.896 38.4525 11.6898 38.7823 11.6898H42.6591C42.9891 11.6898 43.2365 11.8548 43.2365 12.226L43.3603 14.6595C44.9275 12.391 47.6083 11.2773 50.3303 11.2773C55.2795 11.2773 58.1251 14.2471 58.1251 19.1554V32.5192C58.1251 32.8492 57.9189 33.0554 57.5891 33.0554H53.2997C52.9699 33.0554 52.7637 32.8492 52.7637 32.5192V21.3414C52.7637 17.7943 51.4851 16.1444 48.6807 16.1444C46.0823 16.1444 43.6077 18.083 43.6077 22.1664V32.5192C43.6077 32.8492 43.4015 33.0554 43.0715 33.0554Z" fill="#282828"/>
<path d="M29.6119 7.89456C27.8385 7.89456 26.4775 6.69842 26.4775 4.92482C26.4775 3.15122 27.8385 1.95508 29.6119 1.95508C31.3853 1.95508 32.7463 3.15122 32.7463 4.92482C32.7463 6.69842 31.3853 7.89456 29.6119 7.89456Z" fill="#4160FF"/>
<path d="M93.7242 7.89456C91.9508 7.89456 90.5898 6.69842 90.5898 4.92482C90.5898 3.15122 91.9508 1.95508 93.7242 1.95508C95.4978 1.95508 96.8588 3.15122 96.8588 4.92482C96.8588 6.69842 95.4978 7.89456 93.7242 7.89456Z" fill="#4160FF"/>
<path d="M31.758 33.0552H27.4688C27.1388 33.0552 26.9326 32.8488 26.9326 32.5188V12.2257C26.9326 11.8957 27.1388 11.6895 27.4688 11.6895H31.758C32.088 11.6895 32.2942 11.8957 32.2942 12.2257V32.5188C32.2942 32.8488 32.088 33.0552 31.758 33.0552Z" fill="#282828"/>
<path d="M95.8645 33.0552H91.5753C91.2453 33.0552 91.0391 32.8488 91.0391 32.5188V12.2257C91.0391 11.8957 91.2453 11.6895 91.5753 11.6895H95.8645C96.1945 11.6895 96.4007 11.8957 96.4007 12.2257V32.5188C96.4007 32.8488 96.1945 33.0552 95.8645 33.0552Z" fill="#282828"/>
<path d="M6.50232 33.0542H2.00686C1.67692 33.0542 1.4707 32.848 1.4707 32.518V3.3155C1.4707 2.98552 1.67692 2.7793 2.00686 2.7793H20.4424C20.7724 2.7793 20.9786 2.98552 20.9786 3.3155V7.48138C20.9786 7.81136 20.7724 8.0176 20.4424 8.0176H7.03848V15.8544H18.5864C18.9164 15.8544 19.1226 16.0606 19.1226 16.3906V20.5566C19.1226 20.8864 18.9164 21.0928 18.5864 21.0928H7.03848V32.518C7.03848 32.848 6.83226 33.0542 6.50232 33.0542Z" fill="#282828"/>
</svg>
