<svg width="236" height="236" viewBox="0 0 236 236" fill="none" xmlns="http://www.w3.org/2000/svg">
<rect width="236" height="236" rx="118" fill="#E7EBFF"/>
<rect x="95.0498" y="84.8506" width="17.34" height="12.24" rx="1.02" fill="#8A9EFF"/>
<rect x="95.0498" y="104.23" width="17.34" height="12.24" rx="1.02" fill="#8A9EFF"/>
<rect x="124.63" y="84.8506" width="17.34" height="12.24" rx="1.02" fill="#8A9EFF"/>
<rect x="124.63" y="104.23" width="17.34" height="12.24" rx="1.02" fill="#8A9EFF"/>
<path d="M171.703 165.737H165.736V64.2976C165.736 62.715 165.107 61.1973 163.988 60.0783C162.869 58.9592 161.352 58.3306 159.769 58.3306H76.2311C74.6485 58.3306 73.1308 58.9592 72.0118 60.0783C70.8927 61.1973 70.2641 62.715 70.2641 64.2976V165.737H64.2971C62.7145 165.737 61.1968 166.365 60.0778 167.484C58.9587 168.603 58.3301 170.121 58.3301 171.704C58.3301 173.286 58.9587 174.804 60.0778 175.923C61.1968 177.042 62.7145 177.671 64.2971 177.671H171.703C173.286 177.671 174.803 177.042 175.922 175.923C177.041 174.804 177.67 173.286 177.67 171.704C177.67 170.121 177.041 168.603 175.922 167.484C174.803 166.365 173.286 165.737 171.703 165.737ZM123.967 165.737H112.033V141.869H123.967V165.737ZM153.802 165.737H135.901V135.902C135.901 134.319 135.272 132.801 134.153 131.682C133.034 130.563 131.517 129.935 129.934 129.935H106.066C104.484 129.935 102.966 130.563 101.847 131.682C100.728 132.801 100.099 134.319 100.099 135.902V165.737H82.1981V70.2646H153.802V165.737Z" fill="#8A9EFF"/>
</svg>
