<svg width="1080" height="1080" viewBox="0 0 1080 1080" fill="none" xmlns="http://www.w3.org/2000/svg">
<path fill-rule="evenodd" clip-rule="evenodd" d="M513.388 52.3041C246.496 64.392 39.9542 290.48 52.0534 557.382V557.382C64.085 824.195 290.229 1030.74 557.098 1018.64V1018.64C823.888 1006.55 1030.44 780.439 1018.33 513.627V513.627C1006.65 254.216 792.682 51.8084 535.66 51.7971V51.7971C528.269 51.7971 520.845 51.9661 513.388 52.3041" fill="white"/>
<path fill-rule="evenodd" clip-rule="evenodd" d="M513.067 45.5063C250.547 57.3351 45.6497 273.565 44.9963 533.585V533.585V535.973C45.0076 543.082 45.1766 550.201 45.5033 557.366V557.366C57.7489 827.784 286.89 1037.06 557.375 1024.87V1024.87C827.792 1012.67 1037.17 783.488 1024.88 513.014V513.014C1013.01 250.167 796.125 44.9993 535.643 44.9993V44.9993C528.152 44.9993 520.626 45.1683 513.067 45.5063M571.417 966.358C570.944 955.296 587.178 952.49 587.178 952.49V952.49C732.165 923.966 689.784 828.84 638.436 780.342V780.342C616.874 759.895 415.097 585.82 415.097 585.82V585.82C222.626 420.093 238.071 290.765 238.071 290.765V290.765C247.308 131.516 386.719 92.0303 492.187 101.178V101.178C504.478 102.259 511.316 109.774 509.153 120.014V120.014C506.821 131.268 490.486 132.113 490.486 132.113V132.113C456.96 134.051 426.937 137.52 404.136 152.853V152.853C319.104 210.003 344.26 307.269 457.512 415.508V415.508C471.718 429.106 486.904 443.436 502.427 457.957V457.957C502.427 457.957 525.24 478.077 570.46 521.123V521.123C657.655 601.457 705.398 644.773 705.398 644.773V644.773C858.947 772.67 806.574 889.573 747.768 930.219V930.219C703.055 961.21 653.464 975.799 588.417 979.246V979.246C587.865 979.325 587.257 979.37 586.626 979.37V979.37C580.655 979.37 571.879 975.72 571.417 966.358M607.319 494.214C557.548 483.759 547.409 438.528 547.409 438.528V438.528C543.365 422.689 542.362 402.659 545.697 377.109V377.109C552.513 323.597 566.888 298.419 583.313 256.962V256.962C605.472 201.254 551.611 168.663 560.568 148.182V148.182C572.633 120.435 611.048 155.696 653.947 158.242V158.242C690.932 160.304 713.069 158.434 741.762 162.309V162.309C780.009 167.379 825.611 180.278 845.923 204.172V204.172C864.568 225.903 836.1 252.636 801.796 235.918V235.918C776.843 223.74 745.345 231.186 763.843 257.266V257.266C786.013 282.084 796.76 282.828 819.393 288.731V288.731C881.793 305.19 883.133 364.976 840.831 395.911V395.911C792.772 431.116 744.083 416.56 724.526 347.48V347.48C714.826 313.075 690.436 295.512 665.551 305.392V305.392C640.756 315.092 655.401 360.436 674.248 402.422V402.422C706.985 485.99 640.677 494.574 615.453 494.574V494.574C611.634 494.574 608.761 494.371 607.319 494.214M424.64 950.76C370.543 945.443 305.823 928.387 249.54 879.619V879.619C197.741 834.793 165.612 773.238 150.088 719.231V719.231C134.091 663.85 127.456 599.051 153.749 604.199V604.199C161.861 605.799 175.841 641.342 191.095 667.32V667.32C206.81 694.042 219.551 708.799 231.65 717.823V717.823C237.08 721.969 255.567 680.816 282.402 657.44V657.44C298.016 644.586 315.117 640.136 317.854 678.608V678.608C321.279 725.833 312.74 782.059 326.517 782.059V782.059C339.439 782.059 368.403 772.269 432.289 766.896V766.896C456.33 764.823 469.961 769.363 447.047 801.661V801.661C435.635 817.726 420.359 840.471 384.197 866.393V866.393C438.407 917.155 503.51 911.151 504.67 932.69V932.69C505.391 945.127 481.058 951.988 449.064 951.988V951.988C441.291 951.988 433.067 951.594 424.64 950.76" fill="#0046FF"/>
</svg>
